<svg xmlns="http://www.w3.org/2000/svg" viewBox="0 0 180 210"><rect x="8" y="8" width="164" height="194" rx="42" fill="#f7f7f7" stroke="#d9d9d9" stroke-width="6"/><path d="M136 94c0-34-22-58-53-58-34 0-59 27-59 63 0 38 27 65 64 65 23 0 42-9 55-27l-22-16c-8 10-18 15-31 15-17 0-30-9-36-24h82V94zm-81-9c5-14 15-22 29-22 13 0 23 8 27 22H55z" fill="#159bd7"/><circle cx="91" cy="100" r="7" fill="#f7f7f7"/><text x="90" y="188" text-anchor="middle" font-family="Arial,Helvetica,sans-serif" font-size="25" font-weight="800" fill="#222">DDP</text></svg>